<svg width="303" height="503" viewBox="0 0 303 503" fill="none" xmlns="http://www.w3.org/2000/svg">
<path d="M1.5 12C1.5 6.20101 6.20101 1.5 12 1.5H291C296.799 1.5 301.5 6.20101 301.5 12V466.005C301.5 471.804 296.799 476.505 291 476.505H193.392C188.889 476.505 184.77 478.747 181.953 482.084C178.98 485.604 174.466 490.33 168.99 494.118C163.504 497.913 157.178 500.681 150.541 500.501C137.911 500.158 128.264 490.077 123.13 483.135C120.27 479.269 115.797 476.505 110.798 476.505H12C6.20101 476.505 1.5 471.804 1.5 466.005V12Z"  stroke="#ECEFF5" stroke-width="3"/>
<!-- fill="white" -->
</svg>
