<?xml version="1.0" encoding="UTF-8"?> <svg xmlns="http://www.w3.org/2000/svg" width="468" height="468" viewBox="0 0 468 468" fill="none"> <g clip-path="url(#clip0_2001_123)"> <path d="M464.278 168.04C459.081 143.724 448.753 121.852 433.616 103.081L433.5 102.938C430.352 99.0168 424.623 98.3715 420.683 101.506C416.731 104.648 416.075 110.399 419.217 114.349L419.347 114.507C432.706 131.076 441.808 150.372 446.401 171.861C451.036 193.551 450.813 216.414 445.736 239.814C436.153 283.977 410.128 325.346 372.457 356.301C334.642 387.373 289.317 404.486 244.831 404.486C221.872 404.486 200.372 399.968 180.925 391.06C161.736 382.267 145.41 369.629 132.399 353.493C119.348 337.305 110.371 318.508 105.681 297.615H124.403C128.629 313.912 136.076 328.927 146.63 342.018C169.605 370.512 204.48 386.204 244.831 386.204C246.655 386.204 248.48 386.161 250.307 386.097C250.751 386.162 251.194 386.206 251.632 386.206C252.375 386.206 253.103 386.11 253.807 385.936C291.173 383.803 328.863 368.461 360.85 342.176C395.355 313.822 419.156 276.094 427.868 235.938C427.872 235.922 427.875 235.907 427.878 235.891C427.885 235.858 427.891 235.825 427.898 235.792C436.858 194.315 428.77 155.321 405.114 125.981C382.17 97.525 347.356 81.8388 307.07 81.7977C307.03 81.7967 306.99 81.7968 306.95 81.7958C306.938 81.7958 306.926 81.7958 306.913 81.7958C266.65 81.7958 225.446 97.4318 190.894 125.823C156.389 154.177 132.588 191.906 123.875 232.061C123.871 232.08 123.868 232.098 123.864 232.117C123.858 232.145 123.853 232.172 123.847 232.199C120.338 248.437 119.454 264.289 121.082 279.335H102.751C101.142 262.758 102.227 245.621 106.01 228.186C115.593 184.024 141.616 142.655 179.288 111.699C217.103 80.6267 262.428 63.5146 306.913 63.5146C324.958 63.5146 342.226 66.3363 358.237 71.902C363.006 73.5611 368.214 71.0373 369.872 66.2687C371.529 61.5 369.008 56.2908 364.24 54.6336C346.293 48.396 327.006 45.2324 306.913 45.2324C261.035 45.2324 214.505 61.7285 174.929 91.8496H61.2424C56.1941 91.8496 52.1018 95.9419 52.1018 100.99C52.1018 106.039 56.1941 110.131 61.2424 110.131H153.547C120.329 141.976 97.3424 181.917 88.1451 224.308C84.0894 242.998 82.8518 261.427 84.4039 279.334H50.2271C45.1787 279.334 41.0864 283.426 41.0864 288.475C41.0864 293.523 45.1787 297.615 50.2271 297.615H87.0007C87.1561 298.397 87.3014 299.18 87.4678 299.959C92.6642 324.275 102.994 346.146 118.169 364.968C132.973 383.327 151.525 397.698 173.312 407.68C195.164 417.691 219.227 422.767 244.832 422.767C293.54 422.767 342.987 404.178 384.064 370.425C424.903 336.868 453.15 291.859 463.602 243.69C469.232 217.738 469.46 192.285 464.278 168.04ZM140.372 243.141H150.652C155.701 243.141 159.793 239.048 159.793 234C159.793 228.952 155.701 224.859 150.652 224.859H144.6C154.134 192.867 174.386 163.051 202.501 139.949C230.488 116.951 263.109 103.205 295.474 100.557L294.11 106.842C293.04 111.775 296.171 116.643 301.104 117.713C301.758 117.855 302.41 117.922 303.051 117.922C307.26 117.922 311.047 114.998 311.975 110.718L314.238 100.285C345.812 102.027 372.83 115.065 390.883 137.456C409.679 160.769 416.845 191.579 411.373 224.859H401.093C396.045 224.859 391.952 228.952 391.952 234C391.952 239.048 396.045 243.141 401.093 243.141H407.145C397.611 275.133 377.36 304.95 349.244 328.052C323.26 349.403 293.283 362.779 263.224 366.705L264.428 361.158C265.498 356.225 262.366 351.357 257.434 350.287C252.5 349.213 247.632 352.347 246.562 357.282L244.254 367.917C209.789 367.769 180.189 354.515 160.862 330.544C152.977 320.766 147.148 309.663 143.429 297.616H182.42C187.468 297.616 191.56 293.524 191.56 288.475C191.56 283.427 187.468 279.335 182.42 279.335H139.507C138.049 267.796 138.316 255.644 140.372 243.141Z" fill="url(#paint0_linear_2001_123)"></path> <path d="M239.454 273.072C241.496 273.072 243.55 272.391 245.252 270.993L281.677 241.063C283.267 239.756 284.37 237.951 284.806 235.939L303.145 151.414C304.216 146.481 301.084 141.614 296.151 140.544C291.219 139.472 286.35 142.605 285.28 147.538L267.615 228.956L233.646 256.868C229.746 260.073 229.182 265.833 232.388 269.733C234.194 271.933 236.814 273.072 239.454 273.072Z" fill="url(#paint1_linear_2001_123)"></path> <path d="M9.14062 188.843H71.5437C76.592 188.843 80.6843 184.751 80.6843 179.702C80.6843 174.654 76.592 170.562 71.5437 170.562H9.14062C4.09226 170.562 0 174.654 0 179.702C0 184.751 4.09226 188.843 9.14062 188.843Z" fill="url(#paint2_linear_2001_123)"></path> <path d="M80.7755 362.515H33.1958C28.1474 362.515 24.0552 366.607 24.0552 371.655C24.0552 376.704 28.1474 380.796 33.1958 380.796H80.7755C85.8239 380.796 89.9161 376.704 89.9161 371.655C89.9161 366.607 85.8239 362.515 80.7755 362.515Z" fill="url(#paint3_linear_2001_123)"></path> <path d="M17.5777 284.978C14.4324 277.427 3.3302 277.692 0.541396 285.394C-0.779424 289.043 0.449075 293.302 3.51941 295.68C6.49651 297.985 10.6537 298.235 13.8767 296.289C17.6837 293.989 19.2897 289.085 17.5777 284.978Z" fill="url(#paint4_linear_2001_123)"></path> <path d="M389.546 85.7584C391.459 90.3516 396.879 92.6148 401.484 90.7035C406.088 88.7931 408.33 83.37 406.429 78.7658C404.528 74.1654 399.09 71.9122 394.491 73.8208C389.88 75.7348 387.656 81.147 389.546 85.7584Z" fill="url(#paint5_linear_2001_123)"></path> </g> <defs> <linearGradient id="paint0_linear_2001_123" x1="55.0379" y1="45.2326" x2="467.325" y2="61.9973" gradientUnits="userSpaceOnUse"> <stop stop-color="#2EC674"></stop> <stop offset="1" stop-color="#9DE73E"></stop> </linearGradient> <linearGradient id="paint1_linear_2001_123" x1="232.696" y1="140.334" x2="303.328" y2="141.731" gradientUnits="userSpaceOnUse"> <stop stop-color="#2EC674"></stop> <stop offset="1" stop-color="#9DE73E"></stop> </linearGradient> <linearGradient id="paint2_linear_2001_123" x1="2.63674" y1="170.562" x2="78.7677" y2="182.644" gradientUnits="userSpaceOnUse"> <stop stop-color="#2EC674"></stop> <stop offset="1" stop-color="#9DE73E"></stop> </linearGradient> <linearGradient id="paint3_linear_2001_123" x1="26.2075" y1="362.515" x2="88.8653" y2="370.632" gradientUnits="userSpaceOnUse"> <stop stop-color="#2EC674"></stop> <stop offset="1" stop-color="#9DE73E"></stop> </linearGradient> <linearGradient id="paint4_linear_2001_123" x1="0.611399" y1="279.463" x2="18.2379" y2="280.101" gradientUnits="userSpaceOnUse"> <stop stop-color="#2EC674"></stop> <stop offset="1" stop-color="#9DE73E"></stop> </linearGradient> <linearGradient id="paint5_linear_2001_123" x1="389.468" y1="73.1406" x2="407.084" y2="73.7738" gradientUnits="userSpaceOnUse"> <stop stop-color="#2EC674"></stop> <stop offset="1" stop-color="#9DE73E"></stop> </linearGradient> <clipPath id="clip0_2001_123"> <rect width="117" height="117" fill="white" transform="scale(4)"></rect> </clipPath> </defs> </svg> 