<svg width="21" height="20" viewBox="0 0 21 20" fill="none" xmlns="http://www.w3.org/2000/svg">
<path d="M20.5664 9.14062C20.5664 10.2422 20.375 11.2695 19.9922 12.2227C19.6172 13.1758 19.0938 13.9219 18.4219 14.4609C17.75 15 16.9844 15.2695 16.125 15.2695C15.5078 15.2695 14.9492 15.1484 14.4492 14.9062C13.9492 14.6562 13.5586 14.3125 13.2773 13.875H13.1016C12.2656 14.8047 11.25 15.2695 10.0547 15.2695C8.625 15.2695 7.52734 14.8516 6.76172 14.0156C5.99609 13.1797 5.61328 12.0117 5.61328 10.5117C5.61328 9.41016 5.85547 8.4375 6.33984 7.59375C6.82422 6.74219 7.52344 6.08984 8.4375 5.63672C9.35156 5.17578 10.4102 4.94531 11.6133 4.94531C12.2461 4.94531 12.9414 5.01172 13.6992 5.14453C14.4648 5.26953 15.1641 5.44141 15.7969 5.66016L15.5508 10.6055L15.5273 11.707C15.5273 12.3789 15.7188 12.7148 16.1016 12.7148C16.5078 12.7148 16.8359 12.375 17.0859 11.6953C17.3438 11.0156 17.4727 10.1562 17.4727 9.11719C17.4727 7.25 16.9453 5.80859 15.8906 4.79297C14.8359 3.77734 13.3398 3.26953 11.4023 3.26953C9.91797 3.26953 8.625 3.57812 7.52344 4.19531C6.42969 4.8125 5.59375 5.69922 5.01562 6.85547C4.4375 8.00391 4.14844 9.35156 4.14844 10.8984C4.14844 12.8906 4.70312 14.4297 5.8125 15.5156C6.92969 16.5938 8.50391 17.1328 10.5352 17.1328C11.4414 17.1328 12.418 17.0352 13.4648 16.8398C14.5195 16.6445 15.5508 16.3672 16.5586 16.0078V18.6914C14.8086 19.4336 12.8555 19.8047 10.6992 19.8047C7.66797 19.8047 5.28516 19.0156 3.55078 17.4375C1.82422 15.8516 0.960938 13.6562 0.960938 10.8516C0.960938 8.875 1.40625 7.10547 2.29688 5.54297C3.19531 3.97266 4.42969 2.76562 6 1.92188C7.57812 1.07031 9.36328 0.644531 11.3555 0.644531C13.1836 0.644531 14.7969 0.992188 16.1953 1.6875C17.6016 2.38281 18.6797 3.375 19.4297 4.66406C20.1875 5.94531 20.5664 7.4375 20.5664 9.14062ZM8.90625 10.4883C8.90625 11.2695 9.04688 11.8359 9.32812 12.1875C9.61719 12.5391 9.99609 12.7148 10.4648 12.7148C11.0664 12.7148 11.5078 12.4727 11.7891 11.9883C12.0703 11.5039 12.2539 10.6445 12.3398 9.41016L12.457 7.58203C12.1445 7.53516 11.8789 7.51172 11.6602 7.51172C10.8164 7.51172 10.1445 7.77344 9.64453 8.29688C9.15234 8.82031 8.90625 9.55078 8.90625 10.4883Z" fill="url(#paint0_linear_118_463)"/>
<defs>
<linearGradient id="paint0_linear_118_463" x1="0.718954" y1="-8.99998" x2="21.99" y2="-8.53255" gradientUnits="userSpaceOnUse">
<stop stop-color="#FFDB47"/>
<stop offset="1" stop-color="#FDCC06"/>
</linearGradient>
</defs>
</svg>
