<svg width="15" height="20" viewBox="0 0 15 20" fill="none" xmlns="http://www.w3.org/2000/svg">
<path d="M7.49798 0C3.36479 0 0 3.25 0 7.24219C0 12.1992 6.70936 19.4766 6.99649 19.7812C7.26341 20.0703 7.73254 20.0703 7.99946 19.7812C8.2866 19.4727 14.996 12.1992 14.996 7.24219C15 3.25 11.6352 0 7.49798 0ZM7.49798 10.8867C5.41925 10.8867 3.72472 9.25 3.72472 7.24219C3.72472 5.23437 5.41925 3.59766 7.49798 3.59766C9.5767 3.59766 11.2712 5.23437 11.2712 7.24219C11.2712 9.25 9.58075 10.8867 7.49798 10.8867Z" fill="url(#paint0_linear_118_469)"/>
<defs>
<linearGradient id="paint0_linear_118_469" x1="0.490064" y1="1.13503e-05" x2="14.9856" y2="0.39088" gradientUnits="userSpaceOnUse">
<stop stop-color="#FFDB47"/>
<stop offset="1" stop-color="#FDCC06"/>
</linearGradient>
</defs>
</svg>
