<svg width="30" height="30" viewBox="0 0 30 30" fill="none" xmlns="http://www.w3.org/2000/svg">
<path d="M29.4125 23.8544L26.0843 21.6395L23.1254 19.6708C22.557 19.2899 21.7894 19.413 21.3675 19.9579L19.5394 22.3075C19.1468 22.8173 18.4379 22.9637 17.8754 22.6532C16.6332 21.9618 15.1683 21.3114 11.9281 18.0712C8.68786 14.8309 8.03747 13.3661 7.34606 12.1239C7.03552 11.5614 7.182 10.8524 7.69177 10.4598L10.0414 8.63171C10.5804 8.20983 10.7093 7.44225 10.3285 6.8739L8.41833 4.00866L6.14489 0.586786C5.75817 0.000848196 4.97888 -0.169074 4.38122 0.188348L1.75036 1.76452C1.04137 2.18054 0.51989 2.86022 0.291375 3.65124C-0.423469 6.27038 -0.569954 12.0477 8.69372 21.3055C17.9574 30.5633 23.7289 30.4227 26.348 29.702C27.139 29.4735 27.8187 28.952 28.2347 28.243L29.8109 25.618C30.1742 25.0204 29.9984 24.2411 29.4125 23.8544Z" fill="url(#paint0_linear_118_392)"/>
<path d="M17.0684 4.65234C21.9199 4.6582 25.8574 8.58984 25.8633 13.4473C25.8633 13.7344 26.0977 13.9629 26.3789 13.9629C26.666 13.9629 26.8945 13.7285 26.8945 13.4473C26.8887 8.02148 22.4941 3.62695 17.0684 3.62109C16.7812 3.62109 16.5527 3.85547 16.5527 4.13672C16.5527 4.42383 16.7812 4.65234 17.0684 4.65234Z" fill="url(#paint1_linear_118_392)"/>
<path d="M17.0684 7.75781C20.209 7.76367 22.752 10.3066 22.7578 13.4473C22.7578 13.7344 22.9922 13.9629 23.2734 13.9629C23.5605 13.9629 23.7891 13.7285 23.7891 13.4473C23.7832 9.73828 20.7773 6.72656 17.0625 6.7207C16.7754 6.7207 16.5469 6.95508 16.5469 7.23633C16.5469 7.51758 16.7812 7.75781 17.0684 7.75781Z" fill="url(#paint2_linear_118_392)"/>
<path d="M17.0684 10.8633C18.498 10.8633 19.6523 12.0234 19.6523 13.4473C19.6523 13.7344 19.8867 13.9629 20.168 13.9629C20.4551 13.9629 20.6836 13.7285 20.6836 13.4473C20.6836 11.4492 19.0605 9.82617 17.0625 9.82617C16.7754 9.82617 16.5469 10.0605 16.5469 10.3418C16.5527 10.6289 16.7812 10.8633 17.0684 10.8633Z" fill="url(#paint3_linear_118_392)"/>
<defs>
<linearGradient id="paint0_linear_118_392" x1="0.97637" y1="0.00209222" x2="29.9626" y2="1.04462" gradientUnits="userSpaceOnUse">
<stop stop-color="#FFDB47"/>
<stop offset="1" stop-color="#FDCC06"/>
</linearGradient>
<linearGradient id="paint1_linear_118_392" x1="16.8907" y1="3.6211" x2="26.8817" y2="3.98037" gradientUnits="userSpaceOnUse">
<stop stop-color="#FFDB47"/>
<stop offset="1" stop-color="#FDCC06"/>
</linearGradient>
<linearGradient id="paint2_linear_118_392" x1="16.7835" y1="6.72071" x2="23.7801" y2="6.9723" gradientUnits="userSpaceOnUse">
<stop stop-color="#FFDB47"/>
<stop offset="1" stop-color="#FDCC06"/>
</linearGradient>
<linearGradient id="paint3_linear_118_392" x1="16.6821" y1="9.82617" x2="20.6785" y2="9.96988" gradientUnits="userSpaceOnUse">
<stop stop-color="#FFDB47"/>
<stop offset="1" stop-color="#FDCC06"/>
</linearGradient>
</defs>
</svg>
