<?xml version="1.0" encoding="utf-8"?>
<svg viewBox="0 0 468 468" xmlns="http://www.w3.org/2000/svg"
     xmlns:xlink="http://www.w3.org/1999/xlink">
  <style>
    :root>svg {
      display: none
    }

    :root>svg:target {
      display: block
    }
  </style>
  <svg fill="none" viewBox="0 0 15 20" id="address" xmlns="http://www.w3.org/2000/svg">
    <path d="M7.498 0C3.365 0 0 3.25 0 7.242c0 4.957 6.71 12.235 6.996 12.54.267.288.737.288 1.003 0 .288-.31 6.997-7.583 6.997-12.54C15 3.25 11.636 0 7.498 0Zm0 10.887c-2.079 0-3.773-1.637-3.773-3.645s1.694-3.644 3.773-3.644 3.773 1.636 3.773 3.644-1.69 3.645-3.773 3.645Z"
          fill="url(#aa)" />
    <defs>
      <linearGradient id="aa" x1=".49" y1="0" x2="14.986" y2=".391" gradientUnits="userSpaceOnUse">
        <stop stop-color="#FFDB47" />
        <stop offset="1" stop-color="#FDCC06" />
      </linearGradient>
    </defs>
  </svg><svg fill="none" viewBox="0 0 13 22" id="arrowRight" xmlns="http://www.w3.org/2000/svg">
    <rect x="2.121" width="15" height="3" rx="1.5" transform="rotate(45 2.121 0)" fill="url(#ba)" />
    <rect y="19.607" width="15" height="3" rx="1.5" transform="rotate(-45 0 19.607)" fill="url(#bb)" />
    <defs>
      <linearGradient id="ba" x1="2.612" y1="0" x2="16.667" y2="2.527" gradientUnits="userSpaceOnUse">
        <stop stop-color="#FFDB47" />
        <stop offset="1" stop-color="#FDCC06" />
      </linearGradient>
      <linearGradient id="bb" x1=".49" y1="19.607" x2="14.546" y2="22.134" gradientUnits="userSpaceOnUse">
        <stop stop-color="#FFDB47" />
        <stop offset="1" stop-color="#FDCC06" />
      </linearGradient>
    </defs>
  </svg><svg fill="none" viewBox="0 0 22 13" id="arrowUp" xmlns="http://www.w3.org/2000/svg">
    <rect y="10.607" width="15" height="3" rx="1.5" transform="rotate(-45 0 10.607)" fill="url(#ca)" />
    <rect x="19.607" y="12.728" width="15" height="3" rx="1.5" transform="rotate(-135 19.607 12.728)" fill="url(#cb)" />
    <defs>
      <linearGradient id="ca" x1=".49" y1="10.607" x2="14.546" y2="13.134" gradientUnits="userSpaceOnUse">
        <stop stop-color="#FFDB47" />
        <stop offset="1" stop-color="#FDCC06" />
      </linearGradient>
      <linearGradient id="cb" x1="20.097" y1="12.728" x2="34.153" y2="15.255" gradientUnits="userSpaceOnUse">
        <stop stop-color="#FFDB47" />
        <stop offset="1" stop-color="#FDCC06" />
      </linearGradient>
    </defs>
  </svg><svg fill="none" viewBox="0 0 30 30" id="clock" xmlns="http://www.w3.org/2000/svg">
    <g clip-path="url(#da)">
      <path d="M26.843 7.894a1.25 1.25 0 0 0-.58 1.669A12.373 12.373 0 0 1 27.5 15c0 6.892-5.608 12.5-12.5 12.5S2.5 21.892 2.5 15 8.108 2.5 15 2.5c2.856 0 5.54.933 7.76 2.697a1.25 1.25 0 1 0 1.555-1.957A15.025 15.025 0 0 0 15 0C6.73 0 0 6.73 0 15s6.73 15 15 15 15-6.73 15-15c0-2.292-.5-4.488-1.487-6.526a1.249 1.249 0 0 0-1.67-.58Z"
            fill="url(#db)" />
      <path d="M15 5c-.69 0-1.25.56-1.25 1.25V15c0 .69.56 1.25 1.25 1.25h6.25a1.25 1.25 0 0 0 0-2.5h-5v-7.5C16.25 5.56 15.69 5 15 5Z"
            fill="url(#dc)" />
    </g>
    <defs>
      <linearGradient id="db" x1=".98" y1="0" x2="29.963" y2="1.042" gradientUnits="userSpaceOnUse">
        <stop stop-color="#FFDB47" />
        <stop offset="1" stop-color="#FDCC06" />
      </linearGradient>
      <linearGradient id="dc" x1="14.036" y1="5" x2="22.494" y2="5.237" gradientUnits="userSpaceOnUse">
        <stop stop-color="#FFDB47" />
        <stop offset="1" stop-color="#FDCC06" />
      </linearGradient>
      <clipPath id="da">
        <path fill="#fff" d="M0 0h30v30H0z" />
      </clipPath>
    </defs>
  </svg><svg fill="none" viewBox="0 0 468 468" id="delivery20" xmlns="http://www.w3.org/2000/svg">
    <g clip-path="url(#ea)">
      <path d="M464.278 168.04c-5.197-24.316-15.525-46.188-30.662-64.959l-.116-.143c-3.148-3.921-8.877-4.567-12.817-1.432-3.952 3.142-4.608 8.893-1.466 12.843l.13.158c13.359 16.569 22.461 35.865 27.054 57.354 4.635 21.69 4.412 44.553-.665 67.953-9.583 44.163-35.608 85.532-73.279 116.487-37.815 31.072-83.14 48.185-127.626 48.185-22.959 0-44.459-4.518-63.906-13.426-19.189-8.793-35.515-21.431-48.526-37.567-13.051-16.188-22.028-34.985-26.718-55.878h18.722c4.226 16.297 11.673 31.312 22.227 44.403 22.975 28.494 57.85 44.186 98.201 44.186 1.824 0 3.649-.043 5.476-.107.444.065.887.109 1.325.109.743 0 1.471-.096 2.175-.27 37.366-2.133 75.056-17.475 107.043-43.76 34.505-28.354 58.306-66.082 67.018-106.238a.787.787 0 0 0 .01-.047l.02-.099c8.96-41.477.872-80.471-22.784-109.811-22.944-28.456-57.758-44.142-98.044-44.183l-.12-.002h-.037c-40.263 0-81.467 15.636-116.019 44.027-34.505 28.354-58.306 66.083-67.019 106.238l-.011.056-.017.082c-3.509 16.238-4.393 32.09-2.765 47.136h-18.331c-1.609-16.577-.524-33.714 3.259-51.149 9.583-44.162 35.606-85.531 73.278-116.487 37.815-31.072 83.14-48.184 127.625-48.184 18.045 0 35.313 2.821 51.324 8.387 4.769 1.66 9.977-.865 11.635-5.633 1.657-4.769-.864-9.978-5.632-11.635-17.947-6.238-37.234-9.402-57.327-9.402-45.878 0-92.408 16.496-131.984 46.618H61.242a9.14 9.14 0 0 0-9.14 9.14 9.14 9.14 0 0 0 9.14 9.141h92.305c-33.218 31.845-56.205 71.786-65.402 114.177-4.056 18.69-5.293 37.119-3.741 55.026H50.227a9.14 9.14 0 0 0-9.14 9.141 9.14 9.14 0 0 0 9.14 9.14h36.774c.155.782.3 1.565.467 2.344 5.196 24.316 15.526 46.187 30.701 65.009 14.804 18.359 33.356 32.73 55.143 42.712 21.852 10.011 45.915 15.087 71.52 15.087 48.708 0 98.155-18.589 139.232-52.342 40.839-33.557 69.086-78.566 79.538-126.735 5.63-25.952 5.858-51.405.676-75.65Zm-323.906 75.101h10.28a9.14 9.14 0 0 0 9.141-9.141 9.14 9.14 0 0 0-9.141-9.141H144.6c9.534-31.992 29.786-61.808 57.901-84.91 27.987-22.998 60.608-36.744 92.973-39.392l-1.364 6.285c-1.07 4.933 2.061 9.801 6.994 10.871a9.168 9.168 0 0 0 1.947.209c4.209 0 7.996-2.924 8.924-7.204l2.263-10.433c31.574 1.742 58.592 14.78 76.645 37.171 18.796 23.313 25.962 54.123 20.49 87.403h-10.28a9.142 9.142 0 0 0 0 18.282h6.052c-9.534 31.992-29.785 61.809-57.901 84.911-25.984 21.351-55.961 34.727-86.02 38.653l1.204-5.547c1.07-4.933-2.062-9.801-6.994-10.871-4.934-1.074-9.802 2.06-10.872 6.995l-2.308 10.635c-34.465-.148-64.065-13.402-83.392-37.373-7.885-9.778-13.714-20.881-17.433-32.928h38.991a9.14 9.14 0 0 0 9.14-9.141 9.14 9.14 0 0 0-9.14-9.14h-42.913c-1.458-11.539-1.191-23.691.865-36.194Z"
            fill="url(#eb)" />
      <path d="M239.454 273.072a9.105 9.105 0 0 0 5.798-2.079l36.425-29.93a9.139 9.139 0 0 0 3.129-5.124l18.339-84.525a9.14 9.14 0 0 0-6.994-10.87c-4.932-1.072-9.801 2.061-10.871 6.994l-17.665 81.418-33.969 27.912a9.14 9.14 0 0 0-1.258 12.865 9.118 9.118 0 0 0 7.066 3.339Z"
            fill="url(#ec)" />
      <path d="M9.14 188.843h62.404a9.14 9.14 0 0 0 9.14-9.141 9.14 9.14 0 0 0-9.14-9.14H9.14A9.14 9.14 0 0 0 0 179.702a9.14 9.14 0 0 0 9.14 9.141Z"
            fill="url(#ed)" />
      <path d="M80.775 362.515h-47.58a9.14 9.14 0 0 0-9.14 9.14 9.14 9.14 0 0 0 9.14 9.141h47.58a9.14 9.14 0 0 0 9.141-9.141 9.14 9.14 0 0 0-9.14-9.14Z"
            fill="url(#ee)" />
      <path d="M17.578 284.978c-3.146-7.551-14.248-7.286-17.037.416-1.32 3.649-.092 7.908 2.978 10.286 2.978 2.305 7.135 2.555 10.358.609 3.807-2.3 5.413-7.204 3.7-11.311Z"
            fill="url(#ef)" />
      <path d="M389.546 85.758c1.913 4.594 7.333 6.857 11.938 4.946 4.604-1.91 6.846-7.334 4.945-11.938-1.901-4.6-7.339-6.854-11.938-4.945-4.611 1.914-6.835 7.326-4.945 11.937Z"
            fill="url(#eg)" />
    </g>
    <defs>
      <linearGradient id="eb" x1="55.038" y1="45.233" x2="467.325" y2="61.997" gradientUnits="userSpaceOnUse">
        <stop stop-color="#2EC674" />
        <stop offset="1" stop-color="#9DE73E" />
      </linearGradient>
      <linearGradient id="ec" x1="232.696" y1="140.334" x2="303.328" y2="141.731" gradientUnits="userSpaceOnUse">
        <stop stop-color="#2EC674" />
        <stop offset="1" stop-color="#9DE73E" />
      </linearGradient>
      <linearGradient id="ed" x1="2.637" y1="170.562" x2="78.768" y2="182.644" gradientUnits="userSpaceOnUse">
        <stop stop-color="#2EC674" />
        <stop offset="1" stop-color="#9DE73E" />
      </linearGradient>
      <linearGradient id="ee" x1="26.207" y1="362.515" x2="88.865" y2="370.632" gradientUnits="userSpaceOnUse">
        <stop stop-color="#2EC674" />
        <stop offset="1" stop-color="#9DE73E" />
      </linearGradient>
      <linearGradient id="ef" x1=".611" y1="279.463" x2="18.238" y2="280.101" gradientUnits="userSpaceOnUse">
        <stop stop-color="#2EC674" />
        <stop offset="1" stop-color="#9DE73E" />
      </linearGradient>
      <linearGradient id="eg" x1="389.468" y1="73.141" x2="407.084" y2="73.774" gradientUnits="userSpaceOnUse">
        <stop stop-color="#2EC674" />
        <stop offset="1" stop-color="#9DE73E" />
      </linearGradient>
      <clipPath id="ea">
        <path fill="#fff" transform="scale(4)" d="M0 0h117v117H0z" />
      </clipPath>
    </defs>
  </svg><svg fill="none" viewBox="0 0 468 468" id="delivery40" xmlns="http://www.w3.org/2000/svg">
    <g clip-path="url(#fa)">
      <path d="M464.278 168.04c-5.197-24.316-15.525-46.188-30.662-64.959l-.116-.143c-3.148-3.921-8.877-4.567-12.817-1.432-3.952 3.142-4.608 8.893-1.466 12.843l.13.158c13.359 16.569 22.461 35.865 27.054 57.354 4.635 21.69 4.412 44.553-.665 67.953-9.583 44.163-35.608 85.532-73.279 116.487-37.815 31.072-83.14 48.185-127.626 48.185-22.959 0-44.459-4.518-63.906-13.426-19.189-8.793-35.515-21.431-48.526-37.567-13.051-16.188-22.028-34.985-26.718-55.878h18.722c4.226 16.297 11.673 31.312 22.227 44.403 22.975 28.494 57.85 44.186 98.201 44.186 1.824 0 3.649-.043 5.476-.107.444.065.887.109 1.325.109.743 0 1.471-.096 2.175-.27 37.366-2.133 75.056-17.475 107.043-43.76 34.505-28.354 58.306-66.082 67.018-106.238a.787.787 0 0 0 .01-.047l.02-.099c8.96-41.477.872-80.471-22.784-109.811-22.944-28.456-57.758-44.142-98.044-44.183l-.12-.002h-.037c-40.263 0-81.467 15.636-116.019 44.027-34.505 28.354-58.306 66.083-67.019 106.238l-.011.056-.017.082c-3.509 16.238-4.393 32.09-2.765 47.136h-18.331c-1.609-16.577-.524-33.714 3.259-51.149 9.583-44.162 35.606-85.531 73.278-116.487 37.815-31.072 83.14-48.184 127.625-48.184 18.045 0 35.313 2.821 51.324 8.387 4.769 1.66 9.977-.865 11.635-5.633 1.657-4.769-.864-9.978-5.632-11.635-17.947-6.238-37.234-9.402-57.327-9.402-45.878 0-92.408 16.496-131.984 46.618H61.242a9.14 9.14 0 0 0-9.14 9.14 9.14 9.14 0 0 0 9.14 9.141h92.305c-33.218 31.845-56.205 71.786-65.402 114.177-4.056 18.69-5.293 37.119-3.741 55.026H50.227a9.14 9.14 0 0 0-9.14 9.141 9.14 9.14 0 0 0 9.14 9.14h36.774c.155.782.3 1.565.467 2.344 5.196 24.316 15.526 46.187 30.701 65.009 14.804 18.359 33.356 32.73 55.143 42.712 21.852 10.011 45.915 15.087 71.52 15.087 48.708 0 98.155-18.589 139.232-52.342 40.839-33.557 69.086-78.566 79.538-126.735 5.63-25.952 5.858-51.405.676-75.65Zm-323.906 75.101h10.28a9.14 9.14 0 0 0 9.141-9.141 9.14 9.14 0 0 0-9.141-9.141H144.6c9.534-31.992 29.786-61.808 57.901-84.91 27.987-22.998 60.608-36.744 92.973-39.392l-1.364 6.285c-1.07 4.933 2.061 9.801 6.994 10.871a9.168 9.168 0 0 0 1.947.209c4.209 0 7.996-2.924 8.924-7.204l2.263-10.433c31.574 1.742 58.592 14.78 76.645 37.171 18.796 23.313 25.962 54.123 20.49 87.403h-10.28a9.142 9.142 0 0 0 0 18.282h6.052c-9.534 31.992-29.785 61.809-57.901 84.911-25.984 21.351-55.961 34.727-86.02 38.653l1.204-5.547c1.07-4.933-2.062-9.801-6.994-10.871-4.934-1.074-9.802 2.06-10.872 6.995l-2.308 10.635c-34.465-.148-64.065-13.402-83.392-37.373-7.885-9.778-13.714-20.881-17.433-32.928h38.991a9.14 9.14 0 0 0 9.14-9.141 9.14 9.14 0 0 0-9.14-9.14h-42.913c-1.458-11.539-1.191-23.691.865-36.194Z"
            fill="url(#fb)" />
      <path d="M239.454 273.072a9.105 9.105 0 0 0 5.798-2.079l36.425-29.93a9.139 9.139 0 0 0 3.129-5.124l18.339-84.525a9.14 9.14 0 0 0-6.994-10.87c-4.932-1.072-9.801 2.061-10.871 6.994l-17.665 81.418-33.969 27.912a9.14 9.14 0 0 0-1.258 12.865 9.118 9.118 0 0 0 7.066 3.339Z"
            fill="url(#fc)" />
      <path d="M9.14 188.843h62.404a9.14 9.14 0 0 0 9.14-9.141 9.14 9.14 0 0 0-9.14-9.14H9.14A9.14 9.14 0 0 0 0 179.702a9.14 9.14 0 0 0 9.14 9.141Z"
            fill="url(#fd)" />
      <path d="M80.775 362.515h-47.58a9.14 9.14 0 0 0-9.14 9.14 9.14 9.14 0 0 0 9.14 9.141h47.58a9.14 9.14 0 0 0 9.141-9.141 9.14 9.14 0 0 0-9.14-9.14Z"
            fill="url(#fe)" />
      <path d="M17.578 284.978c-3.146-7.551-14.248-7.286-17.037.416-1.32 3.649-.092 7.908 2.978 10.286 2.978 2.305 7.135 2.555 10.358.609 3.807-2.3 5.413-7.204 3.7-11.311Z"
            fill="url(#ff)" />
      <path d="M389.546 85.758c1.913 4.594 7.333 6.857 11.938 4.946 4.604-1.91 6.846-7.334 4.945-11.938-1.901-4.6-7.339-6.854-11.938-4.945-4.611 1.914-6.835 7.326-4.945 11.937Z"
            fill="url(#fg)" />
    </g>
    <defs>
      <linearGradient id="fb" x1="55.038" y1="45.233" x2="467.325" y2="61.997" gradientUnits="userSpaceOnUse">
        <stop stop-color="#C6B62E" />
        <stop offset="1" stop-color="#E3E73E" stop-opacity=".86" />
      </linearGradient>
      <linearGradient id="fc" x1="232.696" y1="140.334" x2="303.328" y2="141.731" gradientUnits="userSpaceOnUse">
        <stop stop-color="#C6B62E" />
        <stop offset="1" stop-color="#E3E73E" stop-opacity=".86" />
      </linearGradient>
      <linearGradient id="fd" x1="2.637" y1="170.562" x2="78.768" y2="182.644" gradientUnits="userSpaceOnUse">
        <stop stop-color="#C6B62E" />
        <stop offset="1" stop-color="#E3E73E" stop-opacity=".86" />
      </linearGradient>
      <linearGradient id="fe" x1="26.207" y1="362.515" x2="88.865" y2="370.632" gradientUnits="userSpaceOnUse">
        <stop stop-color="#C6B62E" />
        <stop offset="1" stop-color="#E3E73E" stop-opacity=".86" />
      </linearGradient>
      <linearGradient id="ff" x1=".611" y1="279.463" x2="18.238" y2="280.101" gradientUnits="userSpaceOnUse">
        <stop stop-color="#C6B62E" />
        <stop offset="1" stop-color="#E3E73E" stop-opacity=".86" />
      </linearGradient>
      <linearGradient id="fg" x1="389.468" y1="73.141" x2="407.084" y2="73.774" gradientUnits="userSpaceOnUse">
        <stop stop-color="#C6B62E" />
        <stop offset="1" stop-color="#E3E73E" stop-opacity=".86" />
      </linearGradient>
      <clipPath id="fa">
        <path fill="#fff" transform="scale(4)" d="M0 0h117v117H0z" />
      </clipPath>
    </defs>
  </svg><svg fill="none" viewBox="0 0 468 468" id="delivery60" xmlns="http://www.w3.org/2000/svg">
    <g clip-path="url(#ga)">
      <path d="M464.278 168.04c-5.197-24.316-15.525-46.188-30.662-64.959l-.116-.143c-3.148-3.921-8.877-4.567-12.817-1.432-3.952 3.142-4.608 8.893-1.466 12.843l.129.158c13.359 16.569 22.462 35.865 27.055 57.354 4.635 21.69 4.412 44.553-.666 67.953-9.582 44.163-35.607 85.532-73.278 116.487-37.815 31.072-83.141 48.185-127.626 48.185-22.959 0-44.459-4.518-63.906-13.426-19.189-8.793-35.515-21.431-48.526-37.567-13.052-16.188-22.029-34.985-26.718-55.878h18.722c4.226 16.297 11.673 31.312 22.227 44.403 22.974 28.494 57.849 44.186 98.201 44.186 1.823 0 3.649-.043 5.476-.107.444.065.887.109 1.324.109.743 0 1.472-.096 2.176-.27 37.366-2.133 75.055-17.475 107.043-43.76 34.505-28.354 58.306-66.082 67.018-106.238a.389.389 0 0 0 .009-.047c.008-.033.014-.066.02-.099 8.961-41.477.872-80.471-22.784-109.811-22.943-28.456-57.757-44.142-98.043-44.183l-.12-.002h-.037c-40.264 0-81.467 15.636-116.019 44.027-34.505 28.354-58.307 66.083-67.019 106.238l-.011.056-.017.082c-3.509 16.238-4.394 32.09-2.766 47.136h-18.33c-1.609-16.577-.524-33.714 3.259-51.149 9.582-44.162 35.606-85.531 73.278-116.487 37.815-31.072 83.139-48.184 127.625-48.184 18.044 0 35.313 2.821 51.324 8.387 4.768 1.66 9.977-.865 11.635-5.633a9.14 9.14 0 0 0-5.633-11.635c-17.946-6.238-37.233-9.402-57.326-9.402-45.878 0-92.408 16.496-131.984 46.618H61.242a9.14 9.14 0 0 0-9.14 9.14 9.14 9.14 0 0 0 9.14 9.141h92.305c-33.218 31.845-56.205 71.786-65.402 114.177-4.056 18.69-5.293 37.119-3.741 55.026H50.227a9.14 9.14 0 0 0-9.14 9.141 9.14 9.14 0 0 0 9.14 9.14H87c.155.782.3 1.565.466 2.344 5.197 24.316 15.527 46.187 30.702 65.009 14.803 18.359 33.356 32.73 55.143 42.712 21.852 10.011 45.915 15.087 71.52 15.087 48.707 0 98.154-18.589 139.232-52.342 40.839-33.557 69.085-78.566 79.538-126.735 5.629-25.952 5.858-51.405.676-75.65Zm-323.906 75.101h10.28a9.142 9.142 0 0 0 0-18.282H144.6c9.534-31.992 29.786-61.808 57.901-84.91 27.986-22.998 60.607-36.744 92.972-39.392l-1.363 6.285a9.14 9.14 0 1 0 17.865 3.876l2.263-10.433c31.574 1.742 58.592 14.78 76.644 37.171 18.797 23.313 25.963 54.123 20.491 87.403h-10.281c-5.047 0-9.14 4.093-9.14 9.141s4.093 9.141 9.14 9.141h6.053c-9.534 31.992-29.785 61.809-57.901 84.911-25.984 21.351-55.962 34.727-86.02 38.653l1.203-5.547c1.071-4.933-2.061-9.801-6.993-10.871-4.934-1.074-9.803 2.06-10.872 6.995l-2.308 10.635c-34.466-.148-64.065-13.402-83.393-37.373-7.884-9.778-13.713-20.881-17.432-32.928h38.99a9.14 9.14 0 0 0 9.141-9.141 9.14 9.14 0 0 0-9.141-9.14h-42.912c-1.458-11.539-1.191-23.691.865-36.194Z"
            fill="url(#gb)" />
      <path d="M239.454 273.072a9.105 9.105 0 0 0 5.798-2.079l36.425-29.93a9.139 9.139 0 0 0 3.129-5.124l18.339-84.525a9.14 9.14 0 0 0-6.994-10.87c-4.932-1.072-9.801 2.061-10.871 6.994l-17.665 81.418-33.969 27.912a9.14 9.14 0 0 0-1.258 12.865 9.118 9.118 0 0 0 7.066 3.339Z"
            fill="url(#gc)" />
      <path d="M9.14 188.843h62.404a9.14 9.14 0 0 0 9.14-9.141 9.14 9.14 0 0 0-9.14-9.14H9.14A9.14 9.14 0 0 0 0 179.702a9.14 9.14 0 0 0 9.14 9.141Z"
            fill="url(#gd)" />
      <path d="M80.776 362.515h-47.58a9.14 9.14 0 0 0-9.14 9.14 9.14 9.14 0 0 0 9.14 9.141h47.58a9.14 9.14 0 0 0 9.14-9.141 9.14 9.14 0 0 0-9.14-9.14Z"
            fill="url(#ge)" />
      <path d="M17.577 284.978c-3.145-7.551-14.247-7.286-17.036.416-1.32 3.649-.092 7.908 2.978 10.286 2.977 2.305 7.134 2.555 10.357.609 3.807-2.3 5.414-7.204 3.701-11.311Z"
            fill="url(#gf)" />
      <path d="M389.546 85.758c1.913 4.594 7.333 6.857 11.938 4.946 4.604-1.91 6.846-7.334 4.945-11.938-1.901-4.6-7.339-6.854-11.938-4.945-4.611 1.914-6.835 7.326-4.945 11.937Z"
            fill="url(#gg)" />
    </g>
    <defs>
      <linearGradient id="gb" x1="55.038" y1="45.233" x2="467.324" y2="61.997" gradientUnits="userSpaceOnUse">
        <stop stop-color="#FF3D00" />
        <stop offset="1" stop-color="#FD9A06" />
      </linearGradient>
      <linearGradient id="gc" x1="232.696" y1="140.334" x2="303.328" y2="141.731" gradientUnits="userSpaceOnUse">
        <stop stop-color="#FF3D00" />
        <stop offset="1" stop-color="#FD9A06" />
      </linearGradient>
      <linearGradient id="gd" x1="2.637" y1="170.562" x2="78.768" y2="182.644" gradientUnits="userSpaceOnUse">
        <stop stop-color="#FF3D00" />
        <stop offset="1" stop-color="#FD9A06" />
      </linearGradient>
      <linearGradient id="ge" x1="26.208" y1="362.515" x2="88.865" y2="370.632" gradientUnits="userSpaceOnUse">
        <stop stop-color="#FF3D00" />
        <stop offset="1" stop-color="#FD9A06" />
      </linearGradient>
      <linearGradient id="gf" x1=".611" y1="279.463" x2="18.238" y2="280.101" gradientUnits="userSpaceOnUse">
        <stop stop-color="#FF3D00" />
        <stop offset="1" stop-color="#FD9A06" />
      </linearGradient>
      <linearGradient id="gg" x1="389.468" y1="73.141" x2="407.084" y2="73.774" gradientUnits="userSpaceOnUse">
        <stop stop-color="#FF3D00" />
        <stop offset="1" stop-color="#FD9A06" />
      </linearGradient>
      <clipPath id="ga">
        <path fill="#fff" transform="scale(4)" d="M0 0h117v117H0z" />
      </clipPath>
    </defs>
  </svg><svg fill="none" viewBox="0 0 21 20" id="email" xmlns="http://www.w3.org/2000/svg">
    <path d="M20.566 9.14a8.193 8.193 0 0 1-.574 3.083c-.375.953-.898 1.699-1.57 2.238a3.57 3.57 0 0 1-2.297.809 3.794 3.794 0 0 1-1.676-.364 2.9 2.9 0 0 1-1.172-1.031h-.175c-.836.93-1.852 1.395-3.047 1.395-1.43 0-2.528-.418-3.293-1.254-.766-.836-1.149-2.004-1.149-3.504 0-1.102.242-2.075.727-2.918.484-.852 1.183-1.504 2.098-1.957.914-.461 1.972-.692 3.175-.692.633 0 1.328.067 2.086.2.766.125 1.465.296 2.098.515l-.246 4.945-.024 1.102c0 .672.192 1.008.575 1.008.406 0 .734-.34.984-1.02.258-.68.387-1.539.387-2.578 0-1.867-.528-3.308-1.582-4.324-1.055-1.016-2.551-1.523-4.489-1.523-1.484 0-2.777.308-3.879.925-1.093.617-1.93 1.504-2.507 2.66-.579 1.149-.868 2.497-.868 4.043 0 1.993.555 3.532 1.665 4.618 1.117 1.078 2.69 1.617 4.722 1.617.906 0 1.883-.098 2.93-.293a20.08 20.08 0 0 0 3.094-.832v2.683c-1.75.743-3.704 1.114-5.86 1.114-3.031 0-5.414-.79-7.148-2.367C1.824 15.851.96 13.655.96 10.851c0-1.977.445-3.747 1.336-5.309A9.225 9.225 0 0 1 6 1.922C7.578 1.07 9.363.645 11.355.645c1.829 0 3.442.347 4.84 1.042 1.407.696 2.485 1.688 3.235 2.977.758 1.281 1.136 2.774 1.136 4.477Zm-11.66 1.348c0 .782.14 1.348.422 1.7a1.4 1.4 0 0 0 1.137.527c.601 0 1.043-.242 1.324-.727.281-.484.465-1.343.55-2.578l.118-1.828a5.509 5.509 0 0 0-.797-.07c-.844 0-1.515.261-2.015.785-.493.523-.739 1.254-.739 2.191Z"
          fill="url(#ha)" />
    <defs>
      <linearGradient id="ha" x1=".719" y1="-9" x2="21.99" y2="-8.533" gradientUnits="userSpaceOnUse">
        <stop stop-color="#FFDB47" />
        <stop offset="1" stop-color="#FDCC06" />
      </linearGradient>
    </defs>
  </svg><svg viewBox="0 0 16 30" fill="none" id="facebook" xmlns="http://www.w3.org/2000/svg">
    <path d="M13.081 4.98H16V.21C15.5.147 13.762 0 11.744 0 7.53 0 4.65 2.484 4.65 7.049v4.201H0v5.332h4.65V30h5.7V16.582h4.463l.706-5.332H10.35V7.576c-.006-1.54.438-2.596 2.731-2.596Z"
          fill="url(#ia)" />
    <defs>
      <linearGradient id="ia" x1=".523" y1="0" x2="15.995" y2=".297" gradientUnits="userSpaceOnUse">
        <stop stop-color="#FFDB47" />
        <stop offset="1" stop-color="#FDCC06" />
      </linearGradient>
    </defs>
  </svg><svg fill="none" viewBox="0 0 100 76" id="gmail" xmlns="http://www.w3.org/2000/svg">
    <path d="M90.625.5H9.375C4.2.5 0 4.7 0 9.875v56.25C0 71.3 4.2 75.5 9.375 75.5h81.25c5.175 0 9.375-4.2 9.375-9.375V9.875C100 4.7 95.8.5 90.625.5ZM79.588 6.75 50 30.113 20.413 6.75h59.175Zm7.912 62.5h-75V17.038L50 45.88l37.5-28.85V69.25Z"
          fill="url(#ja)" />
    <defs>
      <linearGradient id="ja" x1="3.268" y1=".5" x2="99.779" y2="5.127" gradientUnits="userSpaceOnUse">
        <stop stop-color="#FFDB47" />
        <stop offset="1" stop-color="#FDCC06" />
      </linearGradient>
    </defs>
  </svg><svg fill="none" viewBox="0 0 30 30" id="inst" xmlns="http://www.w3.org/2000/svg">
    <g clip-path="url(#ka)">
      <path d="M20.625 0H9.375A9.372 9.372 0 0 0 0 9.375v11.25A9.372 9.372 0 0 0 9.375 30h11.25A9.372 9.372 0 0 0 30 20.625V9.375A9.372 9.372 0 0 0 20.625 0Zm6.563 20.625a6.567 6.567 0 0 1-6.563 6.563H9.375a6.567 6.567 0 0 1-6.563-6.563V9.375a6.567 6.567 0 0 1 6.563-6.563h11.25a6.567 6.567 0 0 1 6.563 6.563v11.25Z"
            fill="url(#kb)" />
      <path d="M15 7.5A7.5 7.5 0 0 0 7.5 15a7.5 7.5 0 0 0 7.5 7.5 7.5 7.5 0 0 0 7.5-7.5A7.5 7.5 0 0 0 15 7.5Zm0 12.188A4.694 4.694 0 0 1 10.312 15 4.694 4.694 0 0 1 15 10.312 4.694 4.694 0 0 1 19.688 15 4.694 4.694 0 0 1 15 19.688Z"
            fill="url(#kc)" />
      <path d="M23.063 7.94a1.002 1.002 0 1 0 0-2.004 1.002 1.002 0 0 0 0 2.004Z" fill="url(#kd)" />
    </g>
    <defs>
      <linearGradient id="kb" x1=".98" y1="0" x2="29.963" y2="1.042" gradientUnits="userSpaceOnUse">
        <stop stop-color="#FFDB47" />
        <stop offset="1" stop-color="#FDCC06" />
      </linearGradient>
      <linearGradient id="kc" x1="7.99" y1="7.5" x2="22.481" y2="8.021" gradientUnits="userSpaceOnUse">
        <stop stop-color="#FFDB47" />
        <stop offset="1" stop-color="#FDCC06" />
      </linearGradient>
      <linearGradient id="kd" x1="22.126" y1="5.936" x2="24.062" y2="6.005" gradientUnits="userSpaceOnUse">
        <stop stop-color="#FFDB47" />
        <stop offset="1" stop-color="#FDCC06" />
      </linearGradient>
      <clipPath id="ka">
        <path fill="#fff" d="M0 0h30v30H0z" />
      </clipPath>
    </defs>
  </svg><svg fill="none" viewBox="0 0 50 50" id="instWhite" xmlns="http://www.w3.org/2000/svg">
    <g clip-path="url(#la)" fill="#fff">
      <path
            d="M34.375 0h-18.75C6.992 0 0 6.992 0 15.625v18.75C0 43.008 6.992 50 15.625 50h18.75C43.008 50 50 43.008 50 34.375v-18.75C50 6.992 43.008 0 34.375 0Zm10.938 34.375c0 6.035-4.903 10.938-10.938 10.938h-18.75c-6.035 0-10.938-4.903-10.938-10.938v-18.75c0-6.035 4.903-10.938 10.938-10.938h18.75c6.035 0 10.938 4.903 10.938 10.938v18.75Z" />
      <path
            d="M25 12.5c-6.904 0-12.5 5.596-12.5 12.5S18.096 37.5 25 37.5 37.5 31.904 37.5 25 31.904 12.5 25 12.5Zm0 20.313c-4.307 0-7.813-3.506-7.813-7.813s3.506-7.813 7.813-7.813 7.813 3.506 7.813 7.813-3.506 7.813-7.813 7.813ZM38.438 13.232a1.67 1.67 0 1 0 0-3.34 1.67 1.67 0 0 0 0 3.34Z" />
    </g>
    <defs>
      <clipPath id="la">
        <path fill="#fff" d="M0 0h50v50H0z" />
      </clipPath>
    </defs>
  </svg><svg fill="none" viewBox="0 0 117 97" id="deliveryCard" xmlns="http://www.w3.org/2000/svg">
    <path d="M62.38 67.02h31.19c1.17 0 1.95-.78 1.95-1.95V47.526c0-1.17-.78-1.95-1.95-1.95H62.38c-1.169 0-1.949.78-1.949 1.95V65.07c0 1.17.78 1.95 1.95 1.95Zm1.95-17.545H91.62V63.12H64.33V49.475Z"
          fill="url(#ma)" />
    <path d="M9.747 41.677h15.595c1.17 0 1.95-.78 1.95-1.95 0-1.169-.78-1.949-1.95-1.949H9.747c-1.17 0-1.95.78-1.95 1.95s.78 1.95 1.95 1.95Z"
          fill="url(#mb)" />
    <path d="M33.14 41.677h15.595c1.17 0 1.95-.78 1.95-1.95 0-1.169-.78-1.949-1.95-1.949H33.14c-1.17 0-1.95.78-1.95 1.95s.78 1.95 1.95 1.95Z"
          fill="url(#mc)" />
    <path d="M9.747 49.475h25.342c1.17 0 1.95-.78 1.95-1.95s-.78-1.949-1.95-1.949H9.747c-1.17 0-1.95.78-1.95 1.95s.78 1.949 1.95 1.949Z"
          fill="url(#md)" />
    <path d="M48.735 45.576h-5.848c-1.17 0-1.95.78-1.95 1.95 0 1.169.78 1.948 1.95 1.948h5.848c1.17 0 1.95-.78 1.95-1.949 0-1.17-.78-1.95-1.95-1.95Z"
          fill="url(#me)" />
    <path d="M115.209 21.404c-1.364-1.755-3.119-2.73-5.263-2.924l-4.679-.567V8.538c0-4.289-3.509-7.798-7.797-7.798H7.797C3.51.74 0 4.25 0 8.538v62.38c0 3.521 2.366 6.515 5.586 7.474-.098 3.944 2.886 7.367 6.89 7.731l90.062 10.137h.78c3.899 0 7.408-2.924 7.797-6.628l5.848-62.575c.195-1.95-.389-4.094-1.754-5.653ZM3.899 14.386h97.469v11.696H3.898V14.386Zm3.898-9.747H97.47a3.91 3.91 0 0 1 3.899 3.899v1.949H3.898v-1.95a3.91 3.91 0 0 1 3.9-3.898ZM3.9 70.918V29.98h97.469v40.937a3.91 3.91 0 0 1-3.898 3.899H7.798a3.91 3.91 0 0 1-3.9-3.9Zm109.166-44.641-5.849 62.575c-.194 2.145-2.144 3.704-4.288 3.51L13.061 82.224c-1.95-.195-3.314-1.755-3.51-3.51H97.47c4.289 0 7.798-3.508 7.798-7.797v-49.32l4.484.39c.974 0 1.949.585 2.534 1.365.585.78.975 1.95.78 2.924Z"
          fill="url(#mf)" />
    <defs>
      <linearGradient id="ma" x1="61.578" y1="45.576" x2="95.403" y2="47.566" gradientUnits="userSpaceOnUse">
        <stop stop-color="#FFDB47" />
        <stop offset="1" stop-color="#FDCC06" />
      </linearGradient>
      <linearGradient id="mb" x1="8.435" y1="37.778" x2="26.701" y2="41.063" gradientUnits="userSpaceOnUse">
        <stop stop-color="#FFDB47" />
        <stop offset="1" stop-color="#FDCC06" />
      </linearGradient>
      <linearGradient id="mc" x1="31.828" y1="37.778" x2="50.094" y2="41.063" gradientUnits="userSpaceOnUse">
        <stop stop-color="#FFDB47" />
        <stop offset="1" stop-color="#FDCC06" />
      </linearGradient>
      <linearGradient id="md" x1="8.753" y1="45.576" x2="35.121" y2="52.688" gradientUnits="userSpaceOnUse">
        <stop stop-color="#FFDB47" />
        <stop offset="1" stop-color="#FDCC06" />
      </linearGradient>
      <linearGradient id="me" x1="41.256" y1="45.576" x2="50.609" y2="46.417" gradientUnits="userSpaceOnUse">
        <stop stop-color="#FFDB47" />
        <stop offset="1" stop-color="#FDCC06" />
      </linearGradient>
      <linearGradient id="mf" x1="3.824" y1=".74" x2="116.782" y2="5.715" gradientUnits="userSpaceOnUse">
        <stop stop-color="#FFDB47" />
        <stop offset="1" stop-color="#FDCC06" />
      </linearGradient>
    </defs>
  </svg><svg fill="none" viewBox="0 0 117 101" id="deliveryCash" xmlns="http://www.w3.org/2000/svg">
    <path d="M91.066 64.848h3.427v3.427h-3.427v-3.427Z" fill="url(#na)" />
    <path d="M22.51 64.848h3.429v3.427H22.51v-3.427Z" fill="url(#nb)" />
    <path d="M38.733 66.561c0 10.9 8.868 19.767 19.767 19.767 10.9 0 19.767-8.867 19.767-19.767 0-10.899-8.868-19.766-19.767-19.766-10.9 0-19.767 8.867-19.767 19.766Zm36.106 0c0 9.01-7.33 16.34-16.339 16.34-9.01 0-16.339-7.33-16.339-16.34 0-9.009 7.33-16.338 16.339-16.338 9.01 0 16.339 7.33 16.339 16.338Z"
          fill="url(#nc)" />
    <path d="M56.786 53.188v1.244c-3.052.767-5.318 3.533-5.318 6.82v.858c0 3.112 2.318 5.692 5.318 6.106v6.825c-1.12-.609-1.89-1.777-1.89-3.232h-3.428a7.044 7.044 0 0 0 5.318 6.882v1.243h3.428v-1.243c3.052-.767 5.318-3.534 5.318-6.82v-.859c0-3.112-2.318-5.69-5.318-6.105v-6.825c1.12.608 1.89 1.777 1.89 3.232h3.428a7.045 7.045 0 0 0-5.318-6.882v-1.244h-3.428Zm0 11.524a2.74 2.74 0 0 1-1.89-2.602v-.858c0-1.367.765-2.56 1.89-3.17v6.63Zm5.318 6.3v.859c0 1.367-.765 2.56-1.89 3.17v-6.63a2.74 2.74 0 0 1 1.89 2.601Z"
          fill="url(#nd)" />
    <path d="M0 32.627v67.869h19.079v-3.428H3.428V36.054h110.144v61.014H22.506v3.428H117v-67.87H0Z" fill="url(#ne)" />
    <path d="M15.1 93.64H101.9l-.18-1.877c-.379-3.948 2.741-7.378 6.71-7.378h1.714V48.737h-1.714a6.749 6.749 0 0 1-6.742-6.741c0-.401.014-.455.212-2.514H84.144v3.428h14.158c.413 4.61 3.915 8.343 8.415 9.11v29.082c-4.5.767-8.002 4.501-8.415 9.11H18.698c-.413-4.609-3.915-8.343-8.415-9.11V52.02c4.5-.766 8.002-4.5 8.415-9.11h62.018v-3.428H15.1l.18 1.878c.379 3.947-2.741 7.377-6.71 7.377H6.855v35.648H8.57a6.749 6.749 0 0 1 6.741 6.742c0 .4-.013.455-.21 2.513Z"
          fill="url(#nf)" />
    <path d="m84.873 15.855-.811-1.704-19.764 11.864 1.764 2.94L82.74 18.941c2.742 3.772 7.68 5.138 11.904 3.484l3.565 5.941 2.939-1.764-5.256-8.757-1.47.882c-3.435 2.063-7.86.678-9.549-2.873Z"
          fill="url(#ng)" />
    <path d="M109.144 26.603 93.479.504 50.975 26.016l1.764 2.939L92.304 5.207l13.901 23.16 2.939-1.764Z"
          fill="url(#nh)" />
    <defs>
      <linearGradient id="na" x1="91.178" y1="64.848" x2="94.489" y2="64.967" gradientUnits="userSpaceOnUse">
        <stop stop-color="#FFDB47" />
        <stop offset="1" stop-color="#FDCC06" />
      </linearGradient>
      <linearGradient id="nb" x1="22.623" y1="64.848" x2="25.934" y2="64.967" gradientUnits="userSpaceOnUse">
        <stop stop-color="#FFDB47" />
        <stop offset="1" stop-color="#FDCC06" />
      </linearGradient>
      <linearGradient id="nc" x1="40.025" y1="46.795" x2="78.218" y2="48.168" gradientUnits="userSpaceOnUse">
        <stop stop-color="#FFDB47" />
        <stop offset="1" stop-color="#FDCC06" />
      </linearGradient>
      <linearGradient id="nd" x1="51.928" y1="53.188" x2="65.527" y2="53.445" gradientUnits="userSpaceOnUse">
        <stop stop-color="#FFDB47" />
        <stop offset="1" stop-color="#FDCC06" />
      </linearGradient>
      <linearGradient id="ne" x1="3.824" y1="32.627" x2="116.568" y2="39.616" gradientUnits="userSpaceOnUse">
        <stop stop-color="#FFDB47" />
        <stop offset="1" stop-color="#FDCC06" />
      </linearGradient>
      <linearGradient id="nf" x1="10.231" y1="39.482" x2="109.678" y2="46.302" gradientUnits="userSpaceOnUse">
        <stop stop-color="#FFDB47" />
        <stop offset="1" stop-color="#FDCC06" />
      </linearGradient>
      <linearGradient id="ng" x1="65.502" y1="14.151" x2="100.865" y2="17.317" gradientUnits="userSpaceOnUse">
        <stop stop-color="#FFDB47" />
        <stop offset="1" stop-color="#FDCC06" />
      </linearGradient>
      <linearGradient id="nh" x1="52.876" y1=".504" x2="108.842" y2="4.619" gradientUnits="userSpaceOnUse">
        <stop stop-color="#FFDB47" />
        <stop offset="1" stop-color="#FDCC06" />
      </linearGradient>
    </defs>
  </svg><svg fill="none" viewBox="0 0 20 20" id="phone" xmlns="http://www.w3.org/2000/svg">
    <path d="m19.473 14.68-2.798-2.792c-.999-.996-2.696-.6-3.098.697-.3.896-1.299 1.394-2.196 1.196-1.998-.498-4.694-3.092-5.193-5.183-.3-.896.3-1.893 1.197-2.192 1.3-.398 1.698-2.095.699-3.092L5.286.522c-.8-.697-1.997-.697-2.696 0L.694 2.418c-1.896 1.994.203 7.278 4.897 11.963 4.693 4.684 9.988 6.877 11.986 4.883l1.896-1.893c.698-.798.698-1.993 0-2.69Z"
          fill="url(#oa)" />
    <defs>
      <linearGradient id="oa" x1=".653" y1="-.001" x2="19.972" y2=".693" gradientUnits="userSpaceOnUse">
        <stop stop-color="#FFDB47" />
        <stop offset="1" stop-color="#FDCC06" />
      </linearGradient>
    </defs>
  </svg><svg viewBox="0 0 19 22" id="productAdd"  fill="none" xmlns="http://www.w3.org/2000/svg">
    <path d="M18.75 19.1604C18.75 19.6287 18.3614 20.0082 17.8819 20.0082H17.0139V20.8561C17.0139 21.3243 16.6253 21.7039 16.1458 21.7039C15.6664 21.7039 15.2778 21.3243 15.2778 20.8561V20.0082H14.4097C13.9303 20.0082 13.5417 19.6287 13.5417 19.1604C13.5417 18.6922 13.9303 18.3126 14.4097 18.3126H15.2778V17.4648C15.2778 16.9966 15.6664 16.617 16.1458 16.617C16.6253 16.617 17.0139 16.9966 17.0139 17.4648V18.3126H17.8819C18.3614 18.3126 18.75 18.6922 18.75 19.1604ZM18.75 5.93465V14.0736C18.75 14.5418 18.3614 14.9214 17.8819 14.9214C17.4025 14.9214 17.0139 14.5418 17.0139 14.0736V6.78246H15.2778V9.32588C15.2778 9.79412 14.8891 10.1737 14.4097 10.1737C13.9303 10.1737 13.5417 9.79412 13.5417 9.32588V6.78246H5.20833V9.32588C5.20833 9.79412 4.8197 10.1737 4.34028 10.1737C3.86085 10.1737 3.47222 9.79412 3.47222 9.32588V6.78246H1.73611V20.0082H10.9375C11.4169 20.0082 11.8056 20.3878 11.8056 20.8561C11.8056 21.3243 11.4169 21.7039 10.9375 21.7039H0.868056C0.388628 21.7039 0 21.3243 0 20.8561V5.93465C0 5.4664 0.388628 5.08684 0.868056 5.08684H3.51328C3.85812 2.22647 6.35516 0 9.375 0C12.3948 0 14.8919 2.22647 15.2367 5.08684H17.8819C18.3614 5.08684 18.75 5.4664 18.75 5.93465ZM13.4835 5.08684C13.1519 3.16465 11.4359 1.69561 9.375 1.69561C7.31411 1.69561 5.59813 3.16465 5.26654 5.08684H13.4835Z"
          fill="url(#paint0_linear_69_218)" />
    <defs>
      <linearGradient id="paint0_linear_69_218" x1="0.612745" y1="1.23184e-05" x2="18.7327" y2="0.562913"
                      gradientUnits="userSpaceOnUse">
        <stop stop-color="#FFDB47" />
        <stop offset="1" stop-color="#FDCC06" />
      </linearGradient>
    </defs>
  </svg><svg viewBox="0 0 19 22" id="productHover" fill="none"
       xmlns="http://www.w3.org/2000/svg">
    <path d="M18.75 19.1604C18.75 19.6287 18.3614 20.0082 17.8819 20.0082H17.0139V20.8561C17.0139 21.3243 16.6253 21.7039 16.1458 21.7039C15.6664 21.7039 15.2778 21.3243 15.2778 20.8561V20.0082H14.4097C13.9303 20.0082 13.5417 19.6287 13.5417 19.1604C13.5417 18.6922 13.9303 18.3126 14.4097 18.3126H15.2778V17.4648C15.2778 16.9966 15.6664 16.617 16.1458 16.617C16.6253 16.617 17.0139 16.9966 17.0139 17.4648V18.3126H17.8819C18.3614 18.3126 18.75 18.6922 18.75 19.1604ZM18.75 5.93465V14.0736C18.75 14.5418 18.3614 14.9214 17.8819 14.9214C17.4025 14.9214 17.0139 14.5418 17.0139 14.0736V6.78246H15.2778V9.32588C15.2778 9.79412 14.8891 10.1737 14.4097 10.1737C13.9303 10.1737 13.5417 9.79412 13.5417 9.32588V6.78246H5.20833V9.32588C5.20833 9.79412 4.8197 10.1737 4.34028 10.1737C3.86085 10.1737 3.47222 9.79412 3.47222 9.32588V6.78246H1.73611V20.0082H10.9375C11.4169 20.0082 11.8056 20.3878 11.8056 20.8561C11.8056 21.3243 11.4169 21.7039 10.9375 21.7039H0.868056C0.388628 21.7039 0 21.3243 0 20.8561V5.93465C0 5.4664 0.388628 5.08684 0.868056 5.08684H3.51328C3.85812 2.22647 6.35516 0 9.375 0C12.3948 0 14.8919 2.22647 15.2367 5.08684H17.8819C18.3614 5.08684 18.75 5.4664 18.75 5.93465ZM13.4835 5.08684C13.1519 3.16465 11.4359 1.69561 9.375 1.69561C7.31411 1.69561 5.59813 3.16465 5.26654 5.08684H13.4835Z"
          fill="white" />
  </svg>
</svg>