<svg width="50" height="50" viewBox="0 0 50 50" fill="none" xmlns="http://www.w3.org/2000/svg">
<g clip-path="url(#clip0_69_196)">
<path d="M34.375 0H15.625C6.99219 0 0 6.99219 0 15.625V34.375C0 43.0078 6.99219 50 15.625 50H34.375C43.0078 50 50 43.0078 50 34.375V15.625C50 6.99219 43.0078 0 34.375 0ZM45.3125 34.375C45.3125 40.4102 40.4102 45.3125 34.375 45.3125H15.625C9.58984 45.3125 4.6875 40.4102 4.6875 34.375V15.625C4.6875 9.58984 9.58984 4.6875 15.625 4.6875H34.375C40.4102 4.6875 45.3125 9.58984 45.3125 15.625V34.375Z" fill="white"/>
<path d="M25 12.5C18.0957 12.5 12.5 18.0957 12.5 25C12.5 31.9043 18.0957 37.5 25 37.5C31.9043 37.5 37.5 31.9043 37.5 25C37.5 18.0957 31.9043 12.5 25 12.5ZM25 32.8125C20.6934 32.8125 17.1875 29.3066 17.1875 25C17.1875 20.6934 20.6934 17.1875 25 17.1875C29.3066 17.1875 32.8125 20.6934 32.8125 25C32.8125 29.3066 29.3066 32.8125 25 32.8125Z" fill="white"/>
<path d="M38.4375 13.2324C39.3598 13.2324 40.1074 12.4848 40.1074 11.5625C40.1074 10.6402 39.3598 9.89258 38.4375 9.89258C37.5152 9.89258 36.7676 10.6402 36.7676 11.5625C36.7676 12.4848 37.5152 13.2324 38.4375 13.2324Z" fill="white"/>
</g>
<defs>
<clipPath id="clip0_69_196">
<rect width="50" height="50" fill="white"/>
</clipPath>
</defs>
</svg>
