<svg width="117" height="97" viewBox="0 0 117 97" fill="none" xmlns="http://www.w3.org/2000/svg">
<path d="M62.3806 67.0193H93.5708C94.7404 67.0193 95.5201 66.2396 95.5201 65.07V47.5255C95.5201 46.3558 94.7404 45.5761 93.5708 45.5761H62.3806C61.211 45.5761 60.4313 46.3558 60.4313 47.5255V65.07C60.431 66.2394 61.211 67.0193 62.3806 67.0193ZM64.3299 49.4748H91.6214V63.1204H64.3299V49.4748Z" fill="url(#paint0_linear_141_47)"/>
<path d="M9.74704 41.6771H25.3422C26.5119 41.6771 27.2916 40.8974 27.2916 39.7277C27.2916 38.5581 26.5119 37.7784 25.3422 37.7784H9.74704C8.57741 37.7784 7.79773 38.5581 7.79773 39.7277C7.79773 40.8974 8.57741 41.6771 9.74704 41.6771Z" fill="url(#paint1_linear_141_47)"/>
<path d="M33.1397 41.6771H48.7349C49.9046 41.6771 50.6843 40.8974 50.6843 39.7277C50.6843 38.5581 49.9046 37.7784 48.7349 37.7784H33.1397C31.9701 37.7784 31.1904 38.5581 31.1904 39.7277C31.1904 40.8974 31.9701 41.6771 33.1397 41.6771Z" fill="url(#paint2_linear_141_47)"/>
<path d="M9.74704 49.4748H35.0891C36.2587 49.4748 37.0384 48.6951 37.0384 47.5255C37.0384 46.3558 36.2587 45.5761 35.0891 45.5761H9.74704C8.57741 45.5761 7.79773 46.3558 7.79773 47.5255C7.79773 48.6951 8.57741 49.4748 9.74704 49.4748Z" fill="url(#paint3_linear_141_47)"/>
<path d="M48.7347 45.5759H42.8866C41.7169 45.5759 40.9373 46.3556 40.9373 47.5252C40.9373 48.6949 41.7169 49.4745 42.8866 49.4745H48.7347C49.9044 49.4745 50.6841 48.6949 50.6841 47.5252C50.6841 46.3556 49.9044 45.5759 48.7347 45.5759Z" fill="url(#paint4_linear_141_47)"/>
<path d="M115.209 21.4035C113.845 19.6491 112.09 18.6743 109.946 18.4795L105.267 17.9125V12.4362V8.53757C105.267 4.24899 101.758 0.740082 97.4696 0.740082H7.79749C3.5089 0.739853 0 4.24876 0 8.53757V12.4364V28.0316V70.9181C0 74.4392 2.366 77.4329 5.58615 78.3924C5.48792 82.3358 8.47163 85.7593 12.4763 86.1234L102.538 96.2602C102.733 96.2602 103.123 96.2602 103.318 96.2602C107.217 96.2602 110.726 93.3361 111.115 89.6323L116.963 27.0569C117.158 25.1073 116.574 22.9629 115.209 21.4035ZM3.89886 14.3857H101.368V19.4542V26.0821H3.89886V14.3857ZM7.79749 4.63871H97.4694C99.6138 4.63871 101.368 6.39316 101.368 8.53757V10.4869H3.89886V8.53757C3.89886 6.39316 5.65331 4.63871 7.79749 4.63871ZM3.89886 70.9179V29.9807H101.368V70.9179C101.368 73.0623 99.614 74.8168 97.4696 74.8168H7.99258H7.79772C5.65331 74.8168 3.89886 73.0623 3.89886 70.9179ZM113.065 26.2769L107.216 88.8524C107.022 90.9968 105.072 92.5562 102.928 92.3613L13.0608 82.2245C11.1115 82.0297 9.7468 80.4701 9.55194 78.7156H97.4694C101.758 78.7156 105.267 75.2067 105.267 70.9181V28.0314V21.5984L109.751 21.9884C110.725 21.9884 111.7 22.5732 112.285 23.3529C112.87 24.1325 113.26 25.3022 113.065 26.2769Z" fill="url(#paint5_linear_141_47)"/>
<defs>
<linearGradient id="paint0_linear_141_47" x1="61.578" y1="45.5762" x2="95.4034" y2="47.5665" gradientUnits="userSpaceOnUse">
<stop stop-color="#FFDB47"/>
<stop offset="1" stop-color="#FDCC06"/>
</linearGradient>
<linearGradient id="paint1_linear_141_47" x1="8.43478" y1="37.7784" x2="26.7013" y2="41.0628" gradientUnits="userSpaceOnUse">
<stop stop-color="#FFDB47"/>
<stop offset="1" stop-color="#FDCC06"/>
</linearGradient>
<linearGradient id="paint2_linear_141_47" x1="31.8275" y1="37.7784" x2="50.094" y2="41.0628" gradientUnits="userSpaceOnUse">
<stop stop-color="#FFDB47"/>
<stop offset="1" stop-color="#FDCC06"/>
</linearGradient>
<linearGradient id="paint3_linear_141_47" x1="8.75331" y1="45.5761" x2="35.1207" y2="52.6875" gradientUnits="userSpaceOnUse">
<stop stop-color="#FFDB47"/>
<stop offset="1" stop-color="#FDCC06"/>
</linearGradient>
<linearGradient id="paint4_linear_141_47" x1="41.2558" y1="45.5759" x2="50.6086" y2="46.4167" gradientUnits="userSpaceOnUse">
<stop stop-color="#FFDB47"/>
<stop offset="1" stop-color="#FDCC06"/>
</linearGradient>
<linearGradient id="paint5_linear_141_47" x1="3.82353" y1="0.740136" x2="116.782" y2="5.71545" gradientUnits="userSpaceOnUse">
<stop stop-color="#FFDB47"/>
<stop offset="1" stop-color="#FDCC06"/>
</linearGradient>
</defs>
</svg>
