<svg width="117" height="101" viewBox="0 0 117 101" fill="none" xmlns="http://www.w3.org/2000/svg">
<path d="M91.0656 64.8476H94.4933V68.2753H91.0656V64.8476Z" fill="url(#paint0_linear_141_33)"/>
<path d="M22.5109 64.8476H25.9386V68.2753H22.5109V64.8476Z" fill="url(#paint1_linear_141_33)"/>
<path d="M38.7334 66.5614C38.7334 77.4607 47.6007 86.3281 58.5 86.3281C69.3993 86.3281 78.2666 77.4607 78.2666 66.5614C78.2666 55.6622 69.3993 46.7948 58.5 46.7948C47.6007 46.7948 38.7334 55.6622 38.7334 66.5614ZM74.8389 66.5614C74.8389 75.5707 67.5092 82.9003 58.5 82.9003C49.4908 82.9003 42.1611 75.5707 42.1611 66.5614C42.1611 57.5522 49.4908 50.2226 58.5 50.2226C67.5092 50.2226 74.8389 57.5522 74.8389 66.5614Z" fill="url(#paint2_linear_141_33)"/>
<path d="M56.7861 53.1883V54.4318C53.7343 55.199 51.4679 57.9654 51.4679 61.2519V62.1104C51.4679 65.2224 53.7864 67.8016 56.7861 68.2157V75.041C55.6653 74.4324 54.8956 73.2636 54.8956 71.8091H51.4679C51.4679 75.2135 53.7695 77.9324 56.7861 78.6908V79.9344H60.2139V78.6908C63.2657 77.9237 65.5321 75.1573 65.5321 71.871V71.0123C65.5321 67.9003 63.2136 65.3211 60.2139 64.9072V58.0819C61.3347 58.6902 62.1044 59.8593 62.1044 61.3138H65.5321C65.5321 57.9094 63.2303 55.1905 60.2139 54.4321V53.1885H56.7861V53.1883ZM56.7861 64.7121C55.6902 64.3544 54.8956 63.3243 54.8956 62.1104V61.2519C54.8956 59.8845 55.6612 58.6925 56.7861 58.0817V64.7121ZM62.1044 71.0123V71.871C62.1044 73.2384 61.3388 74.4304 60.2139 75.041V68.4108C61.3098 68.7682 62.1044 69.7986 62.1044 71.0123Z" fill="url(#paint3_linear_141_33)"/>
<path d="M0 32.6266V100.496H19.0788V97.068H3.42773V36.0544H113.572V97.068H22.5065V100.496H117V32.6266H0Z" fill="url(#paint4_linear_141_33)"/>
<path d="M15.0994 93.6403H101.901L101.721 91.7628C101.342 87.8152 104.462 84.3854 108.431 84.3854H110.145V48.737H108.431C104.713 48.737 101.689 45.7128 101.689 41.9958C101.689 41.5947 101.703 41.5406 101.901 39.4821H84.144V42.9099H98.3024C98.7151 47.5197 102.217 51.2534 106.717 52.0203V81.1023C102.217 81.869 98.7149 85.603 98.3024 90.2128H18.6976C18.2851 85.603 14.7834 81.869 10.2832 81.1023V52.0203C14.7834 51.2536 18.2851 47.5197 18.6976 42.9099H80.7163V39.4821H15.0994L15.2795 41.3596C15.6577 45.3072 12.538 48.737 8.56934 48.737H6.85547V84.3854H8.56934C12.2866 84.3854 15.3105 87.4096 15.3105 91.1266C15.3105 91.5277 15.2968 91.5818 15.0994 93.6403V93.6403Z" fill="url(#paint5_linear_141_33)"/>
<path d="M84.8733 15.8548L84.0616 14.1509L64.2975 26.0155L66.0619 28.9542L82.7401 18.9422C85.482 22.7137 90.4193 24.0802 94.6437 22.4264L98.2092 28.3671L101.148 26.603L95.8923 17.846L94.4227 18.7281C90.9872 20.7905 86.5627 19.4063 84.8733 15.8548V15.8548Z" fill="url(#paint6_linear_141_33)"/>
<path d="M109.144 26.6032L93.4791 0.504211L50.975 26.0157L52.7389 28.9546L92.3041 5.20729L106.205 28.3671L109.144 26.6032Z" fill="url(#paint7_linear_141_33)"/>
<defs>
<linearGradient id="paint0_linear_141_33" x1="91.1776" y1="64.8476" x2="94.489" y2="64.9667" gradientUnits="userSpaceOnUse">
<stop stop-color="#FFDB47"/>
<stop offset="1" stop-color="#FDCC06"/>
</linearGradient>
<linearGradient id="paint1_linear_141_33" x1="22.6229" y1="64.8476" x2="25.9344" y2="64.9667" gradientUnits="userSpaceOnUse">
<stop stop-color="#FFDB47"/>
<stop offset="1" stop-color="#FDCC06"/>
</linearGradient>
<linearGradient id="paint2_linear_141_33" x1="40.0253" y1="46.7949" x2="78.2177" y2="48.1682" gradientUnits="userSpaceOnUse">
<stop stop-color="#FFDB47"/>
<stop offset="1" stop-color="#FDCC06"/>
</linearGradient>
<linearGradient id="paint3_linear_141_33" x1="51.9275" y1="53.1883" x2="65.5274" y2="53.4454" gradientUnits="userSpaceOnUse">
<stop stop-color="#FFDB47"/>
<stop offset="1" stop-color="#FDCC06"/>
</linearGradient>
<linearGradient id="paint4_linear_141_33" x1="3.82353" y1="32.6267" x2="116.568" y2="39.6157" gradientUnits="userSpaceOnUse">
<stop stop-color="#FFDB47"/>
<stop offset="1" stop-color="#FDCC06"/>
</linearGradient>
<linearGradient id="paint5_linear_141_33" x1="10.2309" y1="39.4821" x2="109.678" y2="46.3023" gradientUnits="userSpaceOnUse">
<stop stop-color="#FFDB47"/>
<stop offset="1" stop-color="#FDCC06"/>
</linearGradient>
<linearGradient id="paint6_linear_141_33" x1="65.5018" y1="14.1509" x2="100.865" y2="17.3165" gradientUnits="userSpaceOnUse">
<stop stop-color="#FFDB47"/>
<stop offset="1" stop-color="#FDCC06"/>
</linearGradient>
<linearGradient id="paint7_linear_141_33" x1="52.8759" y1="0.504228" x2="108.842" y2="4.61891" gradientUnits="userSpaceOnUse">
<stop stop-color="#FFDB47"/>
<stop offset="1" stop-color="#FDCC06"/>
</linearGradient>
</defs>
</svg>
