<svg width="20" height="20" viewBox="0 0 20 20" fill="none" xmlns="http://www.w3.org/2000/svg">
<path d="M19.4728 14.6804L16.6753 11.8884C15.6764 10.8915 13.9792 11.2887 13.5773 12.5854C13.2769 13.4811 12.2781 13.9795 11.3807 13.7809C9.38303 13.2825 6.68697 10.689 6.18755 8.59788C5.88712 7.70225 6.48798 6.70536 7.38537 6.40552C8.68462 6.00832 9.0826 4.3105 8.08377 3.31362L5.28626 0.52156C4.48642 -0.175481 3.2886 -0.175481 2.5902 0.52156L0.693989 2.41798C-1.20223 4.41175 0.896876 9.69601 5.59059 14.3806C10.2843 19.0652 15.5789 21.2575 17.5765 19.2638L19.4728 17.3713C20.1712 16.573 20.1712 15.3775 19.4728 14.6804Z" fill="url(#paint0_linear_118_460)"/>
<defs>
<linearGradient id="paint0_linear_118_460" x1="0.652537" y1="-0.00120935" x2="19.9718" y2="0.693345" gradientUnits="userSpaceOnUse">
<stop stop-color="#FFDB47"/>
<stop offset="1" stop-color="#FDCC06"/>
</linearGradient>
</defs>
</svg>
