<svg width="19" height="22" viewBox="0 0 19 22" fill="none" xmlns="http://www.w3.org/2000/svg">
<path d="M18.75 19.1604C18.75 19.6287 18.3614 20.0082 17.8819 20.0082H17.0139V20.8561C17.0139 21.3243 16.6253 21.7039 16.1458 21.7039C15.6664 21.7039 15.2778 21.3243 15.2778 20.8561V20.0082H14.4097C13.9303 20.0082 13.5417 19.6287 13.5417 19.1604C13.5417 18.6922 13.9303 18.3126 14.4097 18.3126H15.2778V17.4648C15.2778 16.9966 15.6664 16.617 16.1458 16.617C16.6253 16.617 17.0139 16.9966 17.0139 17.4648V18.3126H17.8819C18.3614 18.3126 18.75 18.6922 18.75 19.1604ZM18.75 5.93465V14.0736C18.75 14.5418 18.3614 14.9214 17.8819 14.9214C17.4025 14.9214 17.0139 14.5418 17.0139 14.0736V6.78246H15.2778V9.32588C15.2778 9.79412 14.8891 10.1737 14.4097 10.1737C13.9303 10.1737 13.5417 9.79412 13.5417 9.32588V6.78246H5.20833V9.32588C5.20833 9.79412 4.8197 10.1737 4.34028 10.1737C3.86085 10.1737 3.47222 9.79412 3.47222 9.32588V6.78246H1.73611V20.0082H10.9375C11.4169 20.0082 11.8056 20.3878 11.8056 20.8561C11.8056 21.3243 11.4169 21.7039 10.9375 21.7039H0.868056C0.388628 21.7039 0 21.3243 0 20.8561V5.93465C0 5.4664 0.388628 5.08684 0.868056 5.08684H3.51328C3.85812 2.22647 6.35516 0 9.375 0C12.3948 0 14.8919 2.22647 15.2367 5.08684H17.8819C18.3614 5.08684 18.75 5.4664 18.75 5.93465ZM13.4835 5.08684C13.1519 3.16465 11.4359 1.69561 9.375 1.69561C7.31411 1.69561 5.59813 3.16465 5.26654 5.08684H13.4835Z" fill="url(#paint0_linear_69_218)"/>
<defs>
<linearGradient id="paint0_linear_69_218" x1="0.612745" y1="1.23184e-05" x2="18.7327" y2="0.562913" gradientUnits="userSpaceOnUse">
<stop stop-color="#FFDB47"/>
<stop offset="1" stop-color="#FDCC06"/>
</linearGradient>
</defs>
</svg>
